<svg width="32.000000" height="32.000000" viewBox="0 0 32 32" fill="none" xmlns="http://www.w3.org/2000/svg" xmlns:xlink="http://www.w3.org/1999/xlink">
	<desc>
			Created with Pixso.
	</desc>
	<defs>
		<clipPath id="clip1_847">
			<rect id="carbon:currency-dollar" width="32.000000" height="32.000000" fill="white" fill-opacity="0"/>
		</clipPath>
	</defs>
	<rect id="carbon:currency-dollar" width="32.000000" height="32.000000" fill="#FFFFFF" fill-opacity="0"/>
	<g clip-path="url(#clip1_847)">
		<path id="Vector" d="M23 20.51C23 15.89 19.21 15.37 16.18 14.95C12.87 14.49 11 14.09 11 11.24C11 8.85 13.5 8 15.65 8C16.72 7.96 17.78 8.18 18.75 8.64C19.72 9.09 20.56 9.78 21.22 10.62L22.77 9.37C22.07 8.47 21.2 7.71 20.21 7.15C19.22 6.59 18.13 6.23 17 6.09L17 3L15 3L15 6.02C11.38 6.24 9 8.28 9 11.24C9 15.97 12.83 16.5 15.9 16.93C19.16 17.38 21 17.77 21 20.51C21 23.54 17.86 24 16 24C12.57 24 11.12 23.03 9.77 21.37L8.22 22.62C9.01 23.67 10.04 24.51 11.21 25.09C12.39 25.67 13.68 25.97 15 25.96L15 29L17 29L17 25.95C20.72 25.65 23 23.62 23 20.51Z" fill="#FFFFFF" fill-opacity="1.000000" fill-rule="nonzero"/>
	</g>
</svg>
