<svg width="48.000000" height="48.000000" viewBox="0 0 48 48" fill="none" xmlns="http://www.w3.org/2000/svg" xmlns:xlink="http://www.w3.org/1999/xlink">
	<desc>
			Created with Pixso.
	</desc>
	<defs>
		<clipPath id="clip1_854">
			<rect id="emojione-monotone:money-bag" width="48.000000" height="48.000000" fill="white" fill-opacity="0"/>
		</clipPath>
	</defs>
	<rect id="emojione-monotone:money-bag" width="48.000000" height="48.000000" fill="#FFFFFF" fill-opacity="0"/>
	<g clip-path="url(#clip1_854)">
		<path id="Vector" d="M9.53 39.43C9.53 39.92 8.94 40.32 8.22 40.32C7.5 40.32 6.92 39.92 6.92 39.43C6.92 38.94 7.5 38.54 8.22 38.54C8.94 38.54 9.53 38.94 9.53 39.43Z" fill="#FFFFFF" fill-opacity="1.000000" fill-rule="evenodd"/>
		<path id="Vector" d="M46.5 35L46 34.71C45.97 34.69 42.22 32.46 41.29 29.76L41.08 29.17L40.7 29.67C40.68 29.68 40.15 30.34 38.66 31.12C37.56 24.84 33.81 17.34 28.87 14.14C30.28 14.26 31.7 14.14 33.06 13.64C33.88 13.34 33.53 12 32.7 12.31C31.58 12.72 30.46 12.83 29.34 12.77C32.09 10.25 34.25 6.39 34.25 3.57C34.25 2.89 34.25 1.63 33.24 1.63C32.84 1.63 32.51 1.88 32.06 2.23C31.37 2.76 30.32 3.57 28.79 3.57C28.21 3.57 27.14 2.95 26.28 2.46C25.24 1.86 24.57 1.5 24.02 1.5C23.09 1.5 21.73 2.24 20.54 2.9C20.05 3.17 19.38 3.54 19.24 3.57C17.51 3.57 16.5 2.77 15.83 2.24C15.44 1.93 15.16 1.7 14.78 1.7C13.79 1.7 13.79 2.89 13.79 4.26C13.79 6.91 15.81 10.41 18.45 12.76C16.79 12.88 15.15 13.39 13.99 14.51C13.35 15.12 14.32 16.1 14.95 15.48C15.91 14.55 17.17 14.16 18.52 14.08C18.56 14.22 18.6 14.35 18.66 14.48C13.02 18.54 9.02 28.15 9.02 34.65C9.02 35.29 9.07 35.87 9.14 36.41C7.69 35.77 7.16 35.2 7.15 35.19L6.76 34.74L6.57 35.31C5.73 37.78 2.07 39.93 2.03 39.95L1.5 40.27L2.04 40.56C2.23 40.66 2.42 40.75 2.61 40.85L2.27 41.09L2.45 43.37L16.74 46.5L22.16 43.03C22.7 43.03 23.26 43.03 23.82 43.03L30.15 46.5L44.47 42L44.47 39.59L44.09 39.36C44.28 39.24 44.47 39.12 44.66 38.99L45.16 38.66L45.05 38.6L45.69 38.43L45.8 35.93L45.43 35.66C45.62 35.55 45.82 35.43 46.02 35.3L46.5 35ZM15.15 4.26C15.15 3.93 15.16 3.67 15.17 3.47C15.28 3.56 15.41 3.66 15.56 3.76C15.99 4.81 16.82 6.31 18.22 7.26C19.93 8.42 19.7 7.09 20.61 5.88C21.52 4.67 22.13 4.03 23.66 7.15C24.32 8.51 25.43 4.71 26.48 4.16C26.76 4.31 27.03 4.45 27.31 4.57C29.19 7.64 30.07 6.68 31.74 4.13C32.2 3.86 32.58 3.57 32.88 3.34C32.88 3.41 32.88 3.49 32.88 3.57C32.88 5.98 30.92 9.43 28.51 11.69C28.39 11.4 28.23 11.13 28.02 10.9C27.05 9.79 25.53 11.02 24.81 11.82C23.53 11.41 21.45 10.27 20.09 10.92C19.75 11.08 19.44 11.29 19.17 11.55C16.95 9.52 15.15 6.6 15.15 4.26ZM27.31 12.49C26.97 12.42 26.64 12.34 26.31 12.25C26.72 11.89 27.11 11.77 27.27 12.3C27.29 12.36 27.3 12.43 27.31 12.49ZM21.61 12.96C21.36 12.91 21.1 12.87 20.84 12.84C20.64 12.71 20.45 12.58 20.26 12.44C20.94 11.98 22.13 12.23 23.25 12.61C22.7 12.67 22.15 12.79 21.61 12.96ZM21.95 14.94C21.53 15.05 21.07 15 20.68 14.85C20.84 14.76 21 14.69 21.16 14.61C21.42 14.74 21.68 14.85 21.95 14.94ZM8.08 42.28C6.29 41.76 4.55 41.07 2.89 40.23C3.91 39.56 6.13 37.94 7.03 36C7.65 36.48 9.07 37.37 11.85 38.05C11.8 38.12 11.75 38.21 11.69 38.29C9.32 37.67 7.97 36.88 7.95 36.87L7.62 36.67L7.46 37.02C7.26 37.48 6.77 37.55 6.51 37.55C6.43 37.55 6.38 37.55 6.37 37.54L6.11 37.51L6.01 37.76C5.81 38.29 4.99 38.97 4.69 39.19L4.19 39.56L4.76 39.79C4.97 39.88 5.03 39.96 5.04 39.98C5.04 40.03 4.95 40.17 4.85 40.25L4.42 40.6L4.93 40.83C5.97 41.31 7.14 41.71 8.32 42.04C8.23 42.13 8.15 42.21 8.08 42.28ZM14.12 39.48C15.17 39.63 16.33 39.72 17.6 39.72L17.6 39.72C17.87 39.72 18.14 39.72 18.41 39.71C18.43 39.77 18.45 39.82 18.49 39.87C18.55 39.97 18.64 40.06 18.76 40.12L16.84 41.76C16.81 41.76 16.77 41.76 16.73 41.76C15.88 41.76 15.24 42.07 14.94 42.63C13.78 42.48 12.63 42.29 11.49 42.07C12.41 41.25 13.29 40.39 14.12 39.48ZM5.61 40.38C5.69 40.24 5.74 40.07 5.71 39.88C5.68 39.71 5.6 39.56 5.48 39.44C5.82 39.15 6.28 38.7 6.54 38.24C7.11 38.24 7.59 38.02 7.89 37.63C8.4 37.89 9.55 38.43 11.24 38.89C10.55 39.76 9.61 40.74 8.89 41.47C7.76 41.17 6.63 40.81 5.61 40.38ZM16.3 43.54L16.15 43.54C15.5 43.54 13.36 43.49 10.53 42.9C10.63 42.81 10.74 42.73 10.83 42.65C13.12 43.13 14.97 43.33 15.11 43.35L15.39 43.38L15.47 43.11C15.66 42.54 16.34 42.45 16.73 42.45C16.84 42.45 16.91 42.46 16.92 42.46L17.06 42.47L20.39 39.63L19.5 39.6C19.2 39.59 19.08 39.53 19.05 39.48L19.24 38.99L18.71 39.01C18.34 39.03 17.96 39.03 17.6 39.03L17.6 39.03C16.56 39.03 15.58 38.97 14.69 38.86L14.89 38.61C16.71 38.85 18.88 39 21.5 38.98C20.87 39.86 19.31 41.73 16.3 43.54ZM23.82 40.28L23.82 41.65C23.39 41.65 22.98 41.65 22.57 41.64L22.45 40.1L21.43 40.19C22.12 39.38 22.41 38.84 22.43 38.79L22.71 38.27L22.13 38.28C16.56 38.38 12.94 37.72 10.65 36.98C10.48 36.31 10.38 35.54 10.38 34.65C10.38 28.56 14.27 19.35 19.44 15.62C20.36 16.5 21.75 16.89 23.07 16.03C23.36 15.84 23.61 15.59 23.85 15.33C23.9 15.33 23.96 15.34 24.02 15.34C24.21 15.34 24.4 15.33 24.59 15.3C24.83 15.4 25.07 15.5 25.29 15.59C26.34 16.06 27.24 15.77 27.85 15.13C32.59 17.99 36.38 25.57 37.38 31.7C35.21 32.56 31.78 33.41 26.51 33.56C27.55 32.96 28.33 31.96 28.05 30.65C27.76 29.26 26.6 28.87 25.4 28.81C25.39 28.16 25.39 27.51 25.4 26.86C25.77 27.02 26.12 27.21 26.44 27.41C27.01 27.76 27.52 26.84 26.96 26.48C26.47 26.18 25.95 25.93 25.4 25.74C25.41 24.98 25.41 24.23 25.41 23.47C25.41 22.78 24.39 22.78 24.39 23.47C24.39 24.14 24.38 24.8 24.38 25.46C23.83 25.36 23.28 25.35 22.73 25.43C22.64 24.93 22.53 24.44 22.4 23.95C22.23 23.29 21.24 23.57 21.42 24.24C21.54 24.72 21.64 25.19 21.73 25.68C21.68 25.69 21.64 25.7 21.6 25.72C20.21 26.27 19.36 27.67 20.37 28.98C20.85 29.59 21.47 29.84 22.14 29.92C22.18 30.82 22.2 31.72 22.23 32.62C21.78 32.33 21.36 31.95 20.99 31.55C20.53 31.06 19.8 31.82 20.26 32.31C20.89 32.98 21.55 33.48 22.27 33.81C22.3 34.58 22.35 35.35 22.42 36.12C22.49 36.8 23.52 36.8 23.45 36.12C23.39 35.45 23.34 34.79 23.31 34.12C23.7 34.19 24.11 34.21 24.54 34.17C24.59 34.88 24.65 35.58 24.73 36.29C24.78 36.7 25.17 36.86 25.45 36.78L25.39 38.25C24.94 38.29 24.48 38.33 24 38.36L23.42 38.4L23.73 38.89C23.76 38.94 24.11 39.49 24.88 40.28L23.82 40.28L23.82 40.28ZM42.48 35.34C41.54 35.79 40.35 36.19 39.13 36.55C38.39 35.78 37.43 34.75 36.72 33.83C38.31 33.35 39.2 32.86 39.6 32.59C39.92 32.87 40.34 33.01 40.83 33.01C41 33.01 41.14 33 41.26 32.98C41.62 33.45 42.2 33.98 42.56 34.31C42.39 34.48 42.3 34.68 42.31 34.89C42.32 35.07 42.39 35.22 42.48 35.34ZM37.12 37.81C37.27 37.94 37.43 38.08 37.59 38.22C34.55 39.03 32.29 39.12 31.79 39.12C28.65 37.2 27.01 35.17 26.38 34.25C29.02 34.19 31.2 33.95 33.01 33.62C33.09 33.71 33.16 33.8 33.24 33.89C31.78 34.12 30.31 34.27 28.83 34.33L28.23 34.35L28.56 34.86C28.56 34.86 28.49 34.99 28.04 35.08L27.32 35.22L30.89 38.11L31.06 38.07C31.06 38.07 31.37 37.98 31.76 37.98C32.31 37.98 32.68 38.15 32.87 38.48L32.99 38.68L33.22 38.64C34.53 38.4 35.83 38.13 37.12 37.81ZM26.55 35.6L25.69 35.56C25.65 35.13 25.61 34.71 25.58 34.28C25.73 34.53 26.04 35 26.55 35.6ZM25.49 32.86C25.44 31.85 25.41 30.84 25.4 29.83C25.52 29.83 25.64 29.84 25.76 29.86C27.09 30.06 27.43 31.54 26.4 32.37C26.13 32.58 25.82 32.74 25.49 32.86ZM33.32 37.92C32.98 37.51 32.45 37.29 31.76 37.29C31.47 37.29 31.21 37.33 31.05 37.36L28.81 35.54C28.99 35.43 29.12 35.3 29.19 35.13C29.21 35.09 29.22 35.05 29.23 35C31.01 34.91 32.51 34.73 33.78 34.51C34.39 35.2 35.29 36.14 36.49 37.24C35.02 37.59 33.79 37.83 33.32 37.92ZM24.37 29.85C24.39 30.94 24.42 32.03 24.47 33.12C24.38 33.13 24.28 33.15 24.19 33.16C23.86 33.2 23.56 33.17 23.27 33.1C23.23 32.05 23.21 30.99 23.17 29.94C23.57 29.93 23.98 29.89 24.37 29.85ZM23.11 28.91C23.07 28.08 22.99 27.26 22.88 26.44C23.38 26.37 23.88 26.4 24.37 26.52C24.37 27.28 24.36 28.05 24.37 28.82C24.04 28.84 23.73 28.87 23.45 28.89C23.34 28.9 23.23 28.91 23.11 28.91ZM22.08 28.77C22.02 28.76 21.96 28.74 21.89 28.72C21.59 28.62 21.32 28.45 21.1 28.22C20.46 27.62 21.34 27.04 21.89 26.76C21.98 27.43 22.04 28.1 22.08 28.77ZM30.36 43.37C27.11 41.71 25.36 39.86 24.67 39.01C25.17 38.97 25.64 38.92 26.1 38.88L31.44 42.34L43.15 39.12C37.11 42.76 31.15 43.32 30.36 43.37ZM40.03 37.46C39.94 37.36 39.82 37.25 39.68 37.11C41.02 36.71 42.31 36.24 43.27 35.72L43.85 35.41L43.26 35.11C43.13 35.04 43 34.91 42.99 34.87C42.99 34.85 43.05 34.75 43.27 34.62L43.71 34.37L43.32 34.05C43.31 34.04 42.11 33.04 41.69 32.4L41.55 32.19L41.31 32.26C41.31 32.26 41.1 32.32 40.83 32.32C40.42 32.32 40.11 32.19 39.91 31.92L39.69 31.63L39.42 31.87C39.41 31.88 38.56 32.58 36.28 33.23C36.2 33.13 36.13 33.02 36.06 32.9C38.82 32.07 40.24 31.05 40.85 30.5C41.83 32.62 44.17 34.34 45.18 35.01C43.55 35.99 41.83 36.81 40.03 37.46Z" fill="#FFFFFF" fill-opacity="1.000000" fill-rule="nonzero"/>
		<path id="Vector" d="M33.28 35.33C32.53 35.13 31.69 35.27 31.39 35.64C31.1 36.01 31.47 36.48 32.22 36.69C32.97 36.89 33.81 36.75 34.1 36.38C34.4 36.01 34.03 35.54 33.28 35.33Z" fill="#FFFFFF" fill-opacity="1.000000" fill-rule="nonzero"/>
	</g>
</svg>
