<svg width="32.000000" height="32.000000" viewBox="0 0 32 32" fill="none" xmlns="http://www.w3.org/2000/svg" xmlns:xlink="http://www.w3.org/1999/xlink">
	<desc>
			Created with Pixso.
	</desc>
	<defs>
		<clipPath id="clip1_849">
			<rect id="tabler:currency-naira" width="32.000000" height="32.000000" fill="white" fill-opacity="0"/>
		</clipPath>
	</defs>
	<rect id="tabler:currency-naira" width="32.000000" height="32.000000" fill="#FFFFFF" fill-opacity="0"/>
	<g clip-path="url(#clip1_849)">
		<path id="Vector" d="M9.33 24L9.33 9.4C9.33 9.09 9.43 8.79 9.62 8.54C9.81 8.3 10.08 8.12 10.38 8.04C10.68 7.96 11 7.99 11.28 8.11C11.57 8.23 11.8 8.45 11.95 8.72L20.04 23.27C20.19 23.54 20.42 23.76 20.71 23.88C21 24 21.31 24.03 21.61 23.95C21.91 23.87 22.18 23.69 22.37 23.45C22.56 23.2 22.66 22.9 22.66 22.59L22.66 8" stroke="#FFFFFF" stroke-opacity="1.000000" stroke-width="2.000000" stroke-linejoin="round" stroke-linecap="round"/>
		<path id="Vector" d="M6.66 13.33L25.33 13.33" stroke="#FFFFFF" stroke-opacity="1.000000" stroke-width="2.000000" stroke-linejoin="round" stroke-linecap="round"/>
		<path id="Vector" d="M6.66 18.66L25.33 18.66" stroke="#FFFFFF" stroke-opacity="1.000000" stroke-width="2.000000" stroke-linejoin="round" stroke-linecap="round"/>
	</g>
</svg>
